<?xml version="1.0" encoding="UTF-8"?>
<svg version="1.1" xmlns="http://www.w3.org/2000/svg" width="500" height="500">
<path d="M0 0 C165 0 330 0 500 0 C500 165 500 330 500 500 C335 500 170 500 0 500 C0 335 0 170 0 0 Z " fill="#E5E5DC" transform="translate(0,0)"/>
<path d="M0 0 C10.43604655 10.13655736 16.3855512 23.09082923 16.65919423 37.61012948 C16.69338202 41.73911349 16.682089 45.8672977 16.66455078 49.99633789 C16.66398605 51.85971063 16.66430444 53.72308382 16.66543579 55.5864563 C16.66600787 60.6250582 16.65427704 65.66356422 16.64028788 70.70214391 C16.62775633 75.97520663 16.62660811 81.24827173 16.62423706 86.52134705 C16.61802941 96.49774643 16.60162827 106.4741018 16.58153808 116.45048183 C16.55915682 127.81201597 16.54818005 139.17355225 16.53814721 150.53510296 C16.51726141 173.89843197 16.4805941 197.26170067 16.4375 220.625 C-1.7125 220.625 -19.8625 220.625 -38.5625 220.625 C-38.8925 212.705 -39.2225 204.785 -39.5625 196.625 C-40.366875 198.419375 -41.17125 200.21375 -42 202.0625 C-46.76918285 211.48969593 -53.015121 218.10282646 -63.05078125 221.81640625 C-75.34307465 224.64677859 -88.42958784 223.57812084 -99.25 216.9375 C-113.26237045 206.82981126 -117.41103792 190.69415421 -120.09960938 174.36230469 C-120.83756649 168.40415725 -120.78716266 162.44392566 -120.80273438 156.44946289 C-120.81234079 154.22437698 -120.84337503 152.00025666 -120.875 149.77539062 C-121.0159364 130.73101264 -117.67588879 112.26166122 -104.5625 97.625 C-91.34779481 84.81138011 -58.46692533 69.625 -39.5625 69.625 C-39.60688639 65.19516163 -39.67695877 60.76666726 -39.77001953 56.33764648 C-39.79810373 54.83352807 -39.81938032 53.32926552 -39.83349609 51.82495117 C-39.85510229 49.65208816 -39.90183432 47.48093525 -39.953125 45.30859375 C-39.9845459 43.35264282 -39.9845459 43.35264282 -40.01660156 41.35717773 C-40.77520659 36.17077564 -42.74943613 32.49849933 -46.4375 28.6875 C-49.4002227 27.20613865 -51.28781346 27.15718764 -54.5625 27.625 C-58.34008738 30.02891924 -59.52091971 31.54183942 -61.5625 35.625 C-61.8925 42.225 -62.2225 48.825 -62.5625 55.625 C-80.3825 55.625 -98.2025 55.625 -116.5625 55.625 C-116.5625 15.31730769 -116.5625 15.31730769 -102.53125 0.4765625 C-94.77977732 -6.86550141 -85.87840787 -10.92974776 -75.5625 -13.375 C-74.70269531 -13.58125 -73.84289062 -13.7875 -72.95703125 -14 C-48.23707083 -18.80387895 -20.12344104 -16.40118605 0 0 Z " fill="#010101" transform="translate(230.5625,155.375)"/>
<path d="M0 0 C0.60972656 0.4021875 1.21945312 0.804375 1.84765625 1.21875 C11.70840703 8.58623578 17.3970798 20.8069891 19.66397095 32.61288452 C20.88432139 41.28212724 20.39026548 50.21342178 20.25 58.9375 C20.1675 66.218125 20.085 73.49875 20 81 C1.19 81 -17.62 81 -37 81 C-37.3125 59.875 -37.3125 59.875 -37.38793945 53.23779297 C-37.42024407 51.48923633 -37.45361987 49.74069901 -37.48828125 47.9921875 C-37.49452515 47.09443604 -37.50076904 46.19668457 -37.50720215 45.27172852 C-37.62510864 40.11385532 -38.14178909 36.47113769 -41 32 C-43.93392072 29.60939793 -47.25199521 29.5705976 -50.97265625 29.6953125 C-54.52314667 30.22891222 -56.39741018 31.57898622 -59 34 C-62.26432311 40.74625363 -62.42849847 46.73547076 -62.38818359 54.14819336 C-62.39606903 55.94242485 -62.39606903 55.94242485 -62.40411377 57.77290344 C-62.41500878 61.03338559 -62.41252 64.29349868 -62.40297651 67.55397487 C-62.39533874 70.97972132 -62.40243705 74.40544451 -62.40713501 77.83119202 C-62.41258139 83.58338799 -62.40543123 89.33546813 -62.39111328 95.08764648 C-62.3747966 101.71899552 -62.38007249 108.35006766 -62.3965925 114.98140997 C-62.41024868 120.69379052 -62.4121067 126.40608817 -62.40427649 132.11847979 C-62.39962158 135.52191834 -62.39891432 138.92522716 -62.40888596 142.32865715 C-62.4165316 146.12676393 -62.40485124 149.92434437 -62.38818359 153.72241211 C-62.39425629 154.83697784 -62.40032898 155.95154358 -62.40658569 157.09988403 C-62.34563037 164.62369424 -61.33628109 171.00885314 -57.5 177.5625 C-53.2477012 180.00757181 -48.76464078 179.70452768 -44 179 C-40.02657453 176.51660908 -38.33571836 172.40125203 -37 168 C-36.5509603 164.41828607 -36.51180393 160.86076825 -36.48828125 157.25390625 C-36.47164429 156.35667847 -36.45500732 155.45945068 -36.43786621 154.53503418 C-36.38040908 151.21109002 -36.34789973 147.88675224 -36.3125 144.5625 C-36.209375 137.116875 -36.10625 129.67125 -36 122 C-17.52 122 0.96 122 20 122 C20.04125 129.8375 20.0825 137.675 20.125 145.75 C20.14320801 148.19889648 20.16141602 150.64779297 20.18017578 153.17089844 C20.18602665 155.15038841 20.19112079 157.12988082 20.1953125 159.109375 C20.20554443 160.10598145 20.21577637 161.10258789 20.22631836 162.12939453 C20.22879941 172.32651015 19.21938083 182.09347781 14.375 191.1875 C13.84495361 192.20638306 13.84495361 192.20638306 13.30419922 193.24584961 C4.77710409 209.06918867 -9.59642919 217.35479128 -26.41796875 222.421875 C-48.30141162 227.32164738 -73.46571773 225.26617795 -92.625 213.1875 C-106.2945662 203.6544634 -114.01625113 188.61236634 -116.91690063 172.37304688 C-117.17438457 170.7193939 -117.41847148 169.06361325 -117.65087891 167.40625 C-117.77805613 166.49940964 -117.90523335 165.59256927 -118.03626442 164.6582489 C-119.40456759 154.05351117 -119.43454424 143.48870607 -119.3984375 132.8125 C-119.40046728 130.65079653 -119.40338614 128.48909375 -119.40713501 126.32739258 C-119.41151594 121.83310317 -119.40526573 117.33899465 -119.39111328 112.84472656 C-119.37402423 107.14695322 -119.38388843 101.44960418 -119.40183067 95.75184631 C-119.41278417 91.29883757 -119.4091698 86.84592583 -119.4014473 82.39291382 C-119.39947706 80.29462633 -119.40178962 78.19632939 -119.40888596 76.09805298 C-119.47932945 49.43128678 -117.62178432 21.24588918 -98.125 1.05859375 C-72.9014383 -22.48678744 -26.77777559 -18.47420848 0 0 Z " fill="#010100" transform="translate(368,154)"/>
<path d="M0 0 C0.09297875 9.10174487 0.16390552 18.20332441 0.20724869 27.30544186 C0.22805895 31.53265687 0.25625522 35.75954521 0.30175781 39.98657227 C0.34545165 44.07147462 0.36918637 48.15606419 0.37950897 52.24118233 C0.38685839 53.79401124 0.40120955 55.34682444 0.42292023 56.89951897 C0.54832719 66.24621851 0.56768575 74.61665608 -5.75 82.0625 C-9.18221404 83.49258918 -12.38808753 83.62596889 -16 83 C-20.32808347 80.69168881 -21.75856841 77.90491453 -23.38238525 73.35739136 C-24.51713653 69.02612682 -24.42664826 64.70683269 -24.3984375 60.25390625 C-24.40130768 59.24335678 -24.40417786 58.23280731 -24.40713501 57.19163513 C-24.40916722 55.0645186 -24.40369669 52.93738302 -24.39111328 50.81030273 C-24.37506489 47.57557869 -24.39098265 44.34210719 -24.41015625 41.10742188 C-24.40817334 39.03124727 -24.40432868 36.95507344 -24.3984375 34.87890625 C-24.40451019 33.92238663 -24.41058289 32.965867 -24.4168396 31.98036194 C-24.31676165 22.30248336 -22.08952311 15.1750059 -15.3984375 8.0859375 C-11.42254991 4.62808087 -5.48553587 0 0 0 Z " fill="#E3E3DA" transform="translate(191,252)"/>
</svg>
