<?xml version="1.0" standalone="no"?>
<!DOCTYPE svg PUBLIC "-//W3C//DTD SVG 20010904//EN"
 "http://www.w3.org/TR/2001/REC-SVG-20010904/DTD/svg10.dtd">
<svg version="1.0" xmlns="http://www.w3.org/2000/svg"
 width="500.000000pt" height="500.000000pt" viewBox="0 0 500.000000 500.000000"
 preserveAspectRatio="xMidYMid meet">
<metadata>
Created by potrace 1.14, written by Peter Selinger 2001-2017
</metadata>
<g transform="translate(0.000000,500.000000) scale(0.100000,-0.100000)"
fill="#000000" stroke="none">
<path d="M1650 3590 c-205 -26 -342 -98 -420 -221 -57 -88 -82 -186 -88 -341
l-5 -138 272 0 271 0 0 95 c0 105 11 139 56 174 36 28 76 26 113 -4 51 -44 62
-91 59 -259 l-3 -148 -185 -62 c-102 -35 -214 -75 -249 -90 -256 -110 -353
-274 -368 -621 -13 -307 49 -552 167 -658 68 -61 141 -88 260 -94 82 -4 103
-2 154 17 94 36 169 113 212 219 l24 56 0 -137 0 -138 275 0 275 0 0 928 c0
619 -4 948 -11 988 -36 197 -196 357 -416 415 -88 23 -287 33 -393 19z m260
-1453 c0 -380 -6 -426 -58 -467 -37 -30 -107 -23 -139 14 -37 43 -43 90 -43
322 0 259 8 298 73 368 36 39 136 105 160 106 4 0 7 -154 7 -343z"/>
<path d="M3011 3585 c-177 -33 -296 -102 -377 -220 -77 -112 -116 -246 -134
-463 -13 -156 -13 -924 0 -1051 21 -203 83 -356 185 -458 122 -122 264 -168
520 -168 140 0 169 3 235 23 178 56 307 157 374 293 56 115 66 179 66 457 l0
242 -285 0 -284 0 6 -202 c7 -235 -2 -300 -47 -348 -25 -26 -35 -30 -83 -30
-50 0 -58 3 -85 34 -51 59 -53 86 -50 752 3 546 5 613 20 646 30 68 113 97
177 63 52 -26 61 -71 61 -300 l0 -205 286 0 286 0 -4 248 c-4 228 -6 252 -28
315 -61 177 -208 303 -419 359 -100 26 -316 33 -420 13z"/>
</g>
</svg>
